<?xml version="1.0"?>
<svg xmlns="http://www.w3.org/2000/svg" xmlns:xlink="http://www.w3.org/1999/xlink" xmlns:svgjs="http://svgjs.com/svgjs" version="1.1" width="512" height="512" x="0" y="0" viewBox="0 0 480 480" style="enable-background:new 0 0 512 512" xml:space="preserve"><g><linearGradient xmlns="http://www.w3.org/2000/svg" id="a"><stop stop-opacity="1" stop-color="#ff5ba8" offset="0"/><stop stop-opacity="1" stop-color="#ff0078" offset="1"/></linearGradient><linearGradient xmlns="http://www.w3.org/2000/svg" xmlns:xlink="http://www.w3.org/1999/xlink" id="b" gradientUnits="userSpaceOnUse" x1="-16" x2="489.016" xlink:href="#a" y1="239.998292" y2="239.998292"/><linearGradient xmlns="http://www.w3.org/2000/svg" xmlns:xlink="http://www.w3.org/1999/xlink" id="c" gradientUnits="userSpaceOnUse" x1="-16" x2="489.016" xlink:href="#a" y1="423.998292" y2="423.998292"/><linearGradient xmlns="http://www.w3.org/2000/svg" xmlns:xlink="http://www.w3.org/1999/xlink" id="d" gradientUnits="userSpaceOnUse" x1="-16" x2="489.016" xlink:href="#a" y1="431.998292" y2="431.998292"/><path xmlns="http://www.w3.org/2000/svg" d="m432 168c0-4.421875-3.582031-8-8-8h-68.6875l50.34375-50.347656c3.121094-3.121094 3.121094-8.1875 0-11.308594l-96-96c-2.289062-2.2890625-5.730469-2.972656-8.71875-1.734375s-4.9375 4.152344-4.9375 7.390625v55.496094c-18.695312-.523438-62.71875 1.863281-96 31.453125-18.703125 17.214843-31.304688 40.046875-35.894531 65.050781h-108.105469c-4.417969 0-8 3.578125-8 8v152h-48v160h480v-160h-48zm-154.488281 111.78125 138.488281-96.464844v136.683594h-44l-12.703125 16.941406zm72.175781 69.96875-25.6875 34.25h-168l-25.6875-34.25 86.261719-60.296875 18.859375 13.113281c2.746094 1.910156 6.386718 1.910156 9.132812 0l18.859375-13.113281zm-139.144531-242.757812c37-32.992188 92-27.105469 92.527343-27.050782 2.269532.265625 4.542969-.449218 6.246094-1.96875 1.707032-1.515625 2.683594-3.691406 2.683594-5.972656v-44.691406l76.6875 76.691406-76.6875 76.6875v-44.6875c0-4.421875-3.582031-8-8-8-65.710938 0-106.230469 28.46875-126.617188 48.519531 2.054688-26.488281 13.871094-51.265625 33.160157-69.527343zm85.457031 37.167968v15.839844h-66.664062c20.917968-9.75 43.597656-15.136719 66.664062-15.839844zm-134.503906 31.839844c-.96875 7.960938-1.464844 15.976562-1.496094 24 0 3.566406 2.363281 6.703125 5.792969 7.6875.71875.203125 1.460937.308594 2.207031.3125 2.757812 0 5.320312-1.421875 6.785156-3.761719 7.734375-10.875 17.191406-20.414062 28-28.238281h93.214844v24c0 3.234375 1.949219 6.148438 4.9375 7.386719s6.429688.554687 8.71875-1.734375l29.65625-29.652344h59.199219l-158.511719 110.253906-158.488281-110.253906zm-97.496094 7.328125 138.480469 96.453125-81.777344 57.160156-12.703125-16.941406h-44zm400 152.671875v128h-448v-128h84l48 64h184l48-64zm0 0" fill="url(#b)" data-original="url(#b)" style=""/><path xmlns="http://www.w3.org/2000/svg" d="m48 400h-16v48h32v-16h-16zm0 0" fill="url(#c)" data-original="url(#c)" style=""/><g xmlns="http://www.w3.org/2000/svg" fill="url(#d)"><path d="m200 424h80v16h-80zm0 0" fill=""/><path d="m296 424h16v16h-16zm0 0" fill=""/><path d="m328 424h16v16h-16zm0 0" fill=""/><path d="m168 424h16v16h-16zm0 0" fill=""/><path d="m136 424h16v16h-16zm0 0" fill=""/><path d="m448 416h-16v16h-16v16h32zm0 0" fill=""/></g></g></svg>
